<?xml version="1.0" encoding="UTF-8"?>
<svg version="1.1" xmlns="http://www.w3.org/2000/svg" width="200" height="200">
<path d="M0 0 C0.70298721 -0.00043808 1.40597443 -0.00087616 2.13026428 -0.00132751 C4.44089069 0.00075317 6.75078053 0.02404902 9.0612793 0.04760742 C10.66838688 0.05320597 12.2754996 0.05747485 13.88261414 0.06047058 C18.10281629 0.07189907 22.32270638 0.10134883 26.54278564 0.13458252 C30.85294372 0.1653266 35.16315244 0.17898517 39.47338867 0.1940918 C47.9234173 0.22622072 56.37313284 0.27897211 64.82299805 0.34057617 C64.82299805 4.96057617 64.82299805 9.58057617 64.82299805 14.34057617 C43.04299805 14.34057617 21.26299805 14.34057617 -1.17700195 14.34057617 C-1.17700195 57.90057617 -1.17700195 101.46057617 -1.17700195 146.34057617 C42.38299805 146.34057617 85.94299805 146.34057617 130.82299805 146.34057617 C130.82299805 124.56057617 130.82299805 102.78057617 130.82299805 80.34057617 C135.44299805 80.34057617 140.06299805 80.34057617 144.82299805 80.34057617 C144.89080931 89.64184788 144.94583455 98.94295506 144.97843456 108.24441814 C144.99408194 112.56359234 145.01530314 116.88258845 145.04931641 121.20166016 C145.08194314 125.3708197 145.09985805 129.53980809 145.10762978 133.70908546 C145.11316735 135.29869086 145.12398096 136.88828703 145.14018822 138.47781944 C145.16200705 140.70660933 145.16496319 142.93469449 145.16357422 145.16357422 C145.17356697 147.06552803 145.17356697 147.06552803 145.1837616 149.00590515 C144.785691 152.68541898 144.12449911 154.46380278 141.82299805 157.34057617 C138.04323996 160.07395724 135.4219556 160.71653976 130.78857422 160.7215271 C129.57728851 160.72998657 128.36600281 160.73844604 127.11801147 160.74716187 C125.78399523 160.74132955 124.44998032 160.73518508 123.1159668 160.72875977 C121.70463658 160.7328269 120.29330954 160.73816958 118.88198853 160.74468994 C115.05554504 160.75835258 111.22934455 160.75306934 107.40289688 160.74355268 C103.39603273 160.7359506 99.3891892 160.74300322 95.38232422 160.74771118 C88.65385203 160.75316714 81.92547867 160.74598134 75.19702148 160.73168945 C67.42107441 160.7153632 59.64536332 160.72065183 51.86942196 160.73716867 C45.18987224 160.75078811 38.51039351 160.75270097 31.83083439 160.74485266 C27.84286189 160.74017865 23.85500026 160.73954377 19.86703491 160.74946213 C16.11753686 160.75813623 12.36834268 160.75210203 8.61887741 160.73477936 C7.24385457 160.73081685 5.86880609 160.73194457 4.49379349 160.73856735 C2.61501232 160.74678138 0.73617518 160.73464809 -1.14257812 160.7215271 C-2.71878181 160.71983048 -2.71878181 160.71983048 -4.326828 160.71809959 C-8.77397788 160.12904669 -11.23167033 158.56160655 -13.96569252 155.03022766 C-15.37296003 151.90546115 -15.55427065 149.7270481 -15.55795288 146.30615234 C-15.56641235 145.09486664 -15.57487183 143.88358093 -15.58358765 142.6355896 C-15.57775533 141.30157335 -15.57161086 139.96755844 -15.56518555 138.63354492 C-15.56925268 137.2222147 -15.57459537 135.81088767 -15.58111572 134.39956665 C-15.59477836 130.57312317 -15.58949512 126.74692267 -15.57997847 122.92047501 C-15.57237639 118.91361085 -15.579429 114.90676732 -15.58413696 110.89990234 C-15.58959292 104.17143015 -15.58240712 97.44305679 -15.56811523 90.71459961 C-15.55178898 82.93865253 -15.55707761 75.16294144 -15.57359445 67.38700008 C-15.58721389 60.70745036 -15.58912675 54.02797163 -15.58127844 47.34841251 C-15.57660443 43.36044001 -15.57596955 39.37257839 -15.58588791 35.38461304 C-15.59456201 31.63511498 -15.58852781 27.88592081 -15.57120514 24.13645554 C-15.56724263 22.76143269 -15.56837035 21.38638422 -15.57499313 20.01137161 C-15.58320716 18.13259044 -15.57107387 16.25375331 -15.55795288 14.375 C-15.5568218 13.32419754 -15.55569073 12.27339508 -15.55452538 11.19075012 C-14.98347631 6.87952309 -13.30764987 4.24512687 -9.93806458 1.54936218 C-6.45216471 0.02324432 -3.80403261 -0.01998616 0 0 Z " fill="#000000" transform="translate(35.177001953125,19.659423828125)"/>
<path d="M0 0 C7.20822896 -0.07405325 14.41623741 -0.12855664 21.62475586 -0.16479492 C24.07792008 -0.17989881 26.53105724 -0.20038321 28.98413086 -0.22631836 C32.50641555 -0.26263057 36.02834381 -0.27971036 39.55078125 -0.29296875 C40.65086014 -0.30845261 41.75093903 -0.32393646 42.88435364 -0.33988953 C44.41560127 -0.34022942 44.41560127 -0.34022942 45.9777832 -0.34057617 C46.87713089 -0.34723801 47.77647858 -0.35389984 48.70307922 -0.36076355 C51 0 51 0 52.79260254 1.20739746 C54.4030615 3.59841858 54.3618609 5.14877793 54.34057617 8.0222168 C54.34034958 9.04304855 54.34012299 10.06388031 54.33988953 11.11564636 C54.32440567 12.21572525 54.30892181 13.31580414 54.29296875 14.44921875 C54.28872391 15.5769722 54.28447906 16.70472565 54.28010559 17.86665344 C54.26329311 21.47384367 54.22563528 25.08047822 54.1875 28.6875 C54.17245653 31.13085132 54.15876754 33.57421137 54.14648438 36.01757812 C54.11338102 42.01193334 54.06158026 48.00587241 54 54 C49.38 54 44.76 54 40 54 C39.67 44.76 39.34 35.52 39 26 C37.38512695 27.64105713 35.77025391 29.28211426 34.10644531 30.97290039 C28.7774446 36.38463797 23.4347167 41.78266221 18.08507156 47.1739893 C14.84101863 50.44416932 11.60179288 53.71885089 8.37304688 57.00415039 C5.25869949 60.17270503 2.13240165 63.32899542 -1.00266266 66.47704887 C-2.19838087 67.68202716 -3.38967917 68.8914076 -4.57649994 70.10515022 C-6.2359065 71.80069572 -7.9101477 73.48009921 -9.58886719 75.15649414 C-10.07942596 75.6650293 -10.56998474 76.17356445 -11.07540894 76.69750977 C-12.46893311 78.07020569 -12.46893311 78.07020569 -15 80 C-18.54251369 79.833315 -20.3347949 78.12347533 -22.8125 75.6875 C-23.43769531 75.09324219 -24.06289062 74.49898438 -24.70703125 73.88671875 C-26 72 -26 72 -25.89198303 70.21453857 C-24.62095849 67.05894842 -22.41101302 65.0180466 -20.02124023 62.68066406 C-19.50415497 62.16314072 -18.9870697 61.64561737 -18.45431519 61.1124115 C-16.74609034 59.40627403 -15.02749105 57.71100408 -13.30859375 56.015625 C-12.12109704 54.83372441 -10.93426165 53.65115904 -9.74806213 52.46795654 C-6.6261371 49.35747898 -3.49530756 46.25611608 -0.36254883 43.15655518 C2.83338097 39.99132819 6.0208219 36.81757832 9.20898438 33.64453125 C15.46437699 27.42130111 21.72996655 21.20847898 28 15 C14.14 14.505 14.14 14.505 0 14 C0 9.38 0 4.76 0 0 Z " fill="#000000" transform="translate(126,20)"/>
</svg>
