<svg aria-label="Babbel" width="94" height="32" viewBox="0 0 94 32" fill="none" xmlns="http://www.w3.org/2000/svg" role="img"><path fill-rule="evenodd" clip-rule="evenodd" d="M28.5002 15.3871C29.9363 14.5513 30.7477 13.1551 30.9201 11.2263C31.0681 9.53672 30.5568 8.22358 29.3931 7.32454C28.2585 6.44504 26.8461 6 25.1969 6H19.7615C19.7548 6 19.7482 6.00079 19.7418 6.00156L19.7418 6.00156C19.7363 6.00222 19.7309 6.00286 19.7257 6.00299C19.3512 6.00923 19.0046 6.11235 18.6899 6.31153C18.4995 6.42795 18.3352 6.57747 18.1897 6.74789C17.9132 7.06457 17.7487 7.42739 17.7117 7.83607L16.2616 24.1607C16.2222 24.6041 16.3414 24.9919 16.601 25.3243C16.7058 25.4627 16.824 25.5862 16.9668 25.6868C17.246 25.8849 17.5754 25.9867 17.948 25.9948C17.9543 25.9948 17.9597 25.9961 17.9653 25.9973C17.968 25.9979 17.9708 25.9985 17.9737 25.999C17.9771 25.9996 17.9808 26 17.9849 26H24.4457C26.2818 26 27.9158 25.5365 29.3038 24.6212C30.7265 23.6831 31.529 22.2915 31.6892 20.4883C31.8109 19.1358 31.5469 17.9779 30.9063 17.0555C30.3735 16.2864 29.5656 15.7236 28.5002 15.3871ZM21.1047 9.18472H24.3746C25.2317 9.18472 25.9274 9.40453 26.4371 9.83655C26.9363 10.2563 27.1465 10.8417 27.0769 11.6257C26.9928 12.5508 26.6753 13.2246 26.1297 13.6281C25.5524 14.0568 24.8857 14.2642 24.0943 14.2642H20.6528L21.1047 9.18472ZM26.7578 22.1463C26.0515 22.5889 25.1488 22.8098 24.0742 22.8098H19.8943L20.3456 17.7135H24.6695C25.8228 17.7135 26.7005 17.7873 27.2133 18.24C27.7529 18.7165 27.959 19.2956 27.8897 20.0891C27.8031 21.0548 27.4332 21.7303 26.7578 22.1463ZM8.5306 8.94133C9.13728 8.94133 9.64538 9.24336 9.9183 9.70414C10.0926 9.98474 10.1652 10.3052 10.1342 10.6691C10.1342 10.6691 10.1301 12.8045 7.48019 12.8045C7.15594 12.8045 6.43222 12.7893 6.43222 12.7893L6.61932 10.6691C6.64241 10.4276 6.70921 10.2037 6.81838 9.99695C7.13883 9.37823 7.80254 8.94133 8.5306 8.94133ZM13.2404 14.0257C13.5051 14.0257 13.74 14.0821 13.9519 14.1841C14.5349 14.455 14.9064 15.0541 14.845 15.7526C14.7799 16.4712 14.2826 17.0867 13.6298 17.3499C13.4109 17.434 13.1809 17.4856 12.9346 17.4856H9.52779L9.22961 20.8359C9.20789 21.0975 9.12778 21.3338 9.00557 21.552C8.67589 22.1482 8.02929 22.5688 7.31969 22.5688C6.59298 22.5688 6.00776 22.1325 5.79539 21.5124C5.72261 21.3024 5.69763 21.079 5.71881 20.8359L6.01672 17.4856H2.60857C2.36362 17.4856 2.13876 17.434 1.93699 17.348C1.33004 17.0867 0.944145 16.4712 1.0066 15.7526C1.06065 15.157 1.41368 14.6297 1.91092 14.3193C2.21046 14.1253 2.54638 14.0257 2.91625 14.0257H13.2404ZM35.8352 12.8324C37.0885 12.351 38.3806 12.1095 39.682 12.1095C41.5251 12.1095 42.8845 12.621 43.7223 13.6349C44.414 14.4918 44.6948 15.7068 44.5571 17.2468L43.9336 24.2792C43.8899 24.7506 43.681 25.1576 43.3098 25.4819C42.9383 25.8059 42.5095 25.9726 42.0351 25.9726C41.3923 25.9726 40.916 25.7319 40.6422 25.2806C39.623 25.7403 38.4292 25.9726 37.0855 25.9726C35.7907 25.9726 34.6968 25.6065 33.8398 24.8841C32.9629 24.1484 32.5748 23.1243 32.6891 21.8421C32.8344 20.2047 33.8447 19.0098 35.6921 18.2964C36.8463 17.8478 38.6033 17.5274 41.0569 17.3176L41.0631 17.2468C41.1313 16.4807 41.0235 15.9013 40.7427 15.5274C40.4206 15.1106 39.89 14.9054 39.1209 14.9054C38.3885 14.9054 37.5996 15.0775 36.7765 15.414C35.7459 15.8389 35.3956 15.8867 35.2215 15.8867C34.838 15.8867 34.5247 15.7578 34.2922 15.5076C34.0584 15.2566 33.9568 14.9366 33.9905 14.5575C34.0519 13.8718 34.6713 13.2908 35.8352 12.8324ZM38.2351 23.2855C39.0175 23.2855 39.8053 23.0836 40.5803 22.6814L40.828 19.8812C38.6538 20.0261 36.1915 20.4809 36.0753 21.7835C36.0319 22.2592 36.203 22.6146 36.5937 22.8686C37.019 23.1465 37.5722 23.2855 38.2351 23.2855ZM52.9339 12.1095C51.9481 12.1095 50.9732 12.2723 50.0278 12.5922L50.4626 7.72202C50.4857 7.46341 50.4485 7.22596 50.3613 7.00751C50.1373 6.41485 49.5722 6.00291 48.8672 6.00291C48.2637 6.00291 47.7051 6.30169 47.3502 6.76084C47.1283 7.04116 46.9985 7.36083 46.9684 7.72202L45.5378 23.8013C45.4452 24.8539 45.9294 25.5272 46.9448 25.744C47.7434 25.8952 48.8191 25.9725 50.1362 25.9725C52.983 25.9725 55.2139 25.1747 56.77 23.604C57.9423 22.4336 58.6215 20.898 58.7864 19.0386C58.9705 16.9564 58.5289 15.2712 57.4769 14.0242C56.399 12.7521 54.8699 12.1095 52.9339 12.1095ZM54.1885 21.629C53.345 22.5549 52.1895 23.0089 50.6554 23.0089C50.0246 23.0089 49.5059 22.9867 49.1072 22.9506L49.7612 15.609C50.4949 15.2926 51.2711 15.1293 52.0678 15.1293C53.0729 15.1293 53.8599 15.4573 54.4652 16.1322C55.0825 16.8524 55.3427 17.8334 55.2367 19.0386C55.1422 20.089 54.79 20.9607 54.1885 21.629ZM64.3203 12.5922C65.2618 12.2723 66.24 12.1095 67.2225 12.1095C69.1569 12.1095 70.6882 12.7521 71.7655 14.0242C72.8238 15.2712 73.2618 16.9564 73.0775 19.0386C72.9118 20.898 72.2345 22.4336 71.0603 23.604C69.5026 25.1747 67.27 25.9725 64.4286 25.9725C63.1066 25.9725 62.0331 25.8952 61.2345 25.744C60.2202 25.5272 59.7333 24.8539 59.8297 23.8013L61.2559 7.72202C61.2882 7.36083 61.418 7.04198 61.6399 6.7641C61.9927 6.30332 62.5524 6.00291 63.1563 6.00291C63.8678 6.00291 64.4354 6.42028 64.6576 7.01565C64.7388 7.23166 64.7732 7.46612 64.7518 7.72202L64.3203 12.5922ZM64.9457 23.0089C66.4792 23.0089 67.6345 22.5549 68.4801 21.629C69.0798 20.9607 69.4325 20.089 69.5262 19.0386C69.6324 17.8334 69.3739 16.8524 68.7528 16.1322C68.1496 15.4573 67.3654 15.1293 66.3578 15.1293C65.5592 15.1293 64.7836 15.2926 64.0514 15.609L63.3986 22.9506C63.7962 22.9867 64.3132 23.0089 64.9457 23.0089ZM81.5321 12.1095C79.4655 12.1095 77.738 12.7513 76.3962 14.0208C75.0387 15.3024 74.2625 16.9377 74.0917 18.8728C73.9092 20.9384 74.3869 22.6388 75.5155 23.9191C76.6768 25.2806 78.4129 25.9726 80.6688 25.9726C82.1257 25.9726 83.5004 25.7091 84.758 25.1889C85.8008 24.746 86.36 24.1788 86.4203 23.4939C86.4558 23.1026 86.3556 22.7628 86.124 22.4741C85.8133 22.0879 85.3899 21.9322 84.7854 22.0744C84.6402 22.1102 84.5103 22.1631 84.402 22.2228C84.3289 22.2668 84.2152 22.3235 84.0617 22.3897C83.9961 22.4193 83.9342 22.4479 83.8763 22.4746C83.786 22.5163 83.7056 22.5534 83.6367 22.5824C82.8131 22.9387 81.9674 23.1194 81.1234 23.1194C79.8921 23.1194 78.9951 22.7365 78.3757 21.9569C77.9776 21.4581 77.7465 20.8432 77.6873 20.117H85.4847C86.027 20.117 86.4833 19.9338 86.8379 19.5694C87.1826 19.2163 87.3813 18.7664 87.4291 18.2286C87.5818 16.5149 87.1568 15.0734 86.1612 13.9331C85.0372 12.7236 83.4808 12.1095 81.5321 12.1095ZM77.9029 17.5716C78.0563 16.916 78.3553 16.3567 78.7963 15.9021C79.4223 15.2891 80.2438 14.989 81.3043 14.989C82.2507 14.989 82.9554 15.2712 83.4512 15.8446C83.8361 16.3246 84.0267 16.8902 84.0327 17.5716H77.9029ZM93.1557 6.76138C93.326 7.04116 93.4001 7.36083 93.3678 7.72202L91.8967 24.2792C91.8742 24.5389 91.796 24.772 91.6749 24.9891C91.3446 25.5823 90.7032 25.9999 89.9966 25.9999C89.2731 25.9999 88.6893 25.566 88.4785 24.9484C88.4079 24.7416 88.381 24.5199 88.4017 24.2792L89.8725 7.72202C89.8947 7.48268 89.961 7.25826 90.0702 7.05256C90.3904 6.43764 91.0494 6.00291 91.7729 6.00291C92.3774 6.00291 92.8825 6.30332 93.1557 6.76138Z" fill="#FE4D01"/></svg>