<svg width="256" height="64" viewBox="0 0 256 64" fill="none" xmlns="http://www.w3.org/2000/svg">
<path d="M91.1085 37.5799L95.0198 41.7074C93.928 42.7363 92.6406 43.5349 91.2341 44.0556C89.7576 44.5905 88.1956 44.8504 86.6256 44.8224C84.9466 44.8276 83.2824 44.5093 81.7237 43.8849C80.2946 43.3115 78.9913 42.4639 77.8872 41.3899C76.816 40.3431 75.9679 39.0898 75.3944 37.7057C74.2118 34.8274 74.2118 31.5983 75.3944 28.72C75.9669 27.3321 76.8103 26.0725 77.8752 25.0149C78.974 23.9332 80.2745 23.0783 81.7028 22.4989C83.2663 21.8672 84.9396 21.5526 86.6256 21.5734C88.1779 21.5609 89.7201 21.8246 91.1803 22.3521C91.3658 22.422 91.5484 22.4939 91.7279 22.5678C92.1445 22.7476 92.5113 23.0257 92.7972 23.3782C93.083 23.7308 93.2793 24.1474 93.3693 24.5924C93.4592 25.0375 93.4402 25.4977 93.3139 25.9338C93.1875 26.3698 92.9576 26.7688 92.6436 27.0966V27.0966C92.2386 27.5132 91.716 27.7961 91.1459 27.9074C90.5759 28.0188 89.9854 27.9532 89.4536 27.7196C89.3578 27.6806 89.262 27.6417 89.1543 27.6058C88.3541 27.3226 87.5101 27.1837 86.6615 27.1954C85.9196 27.1916 85.184 27.3309 84.4948 27.6058C83.8232 27.873 83.2124 28.2734 82.6993 28.7829C82.1633 29.3188 81.7445 29.9604 81.4693 30.6669C81.1555 31.4721 81.001 32.3307 81.0145 33.1949C81.0005 34.0552 81.155 34.91 81.4693 35.7109C81.7483 36.422 82.17 37.0683 82.7083 37.6099C83.2185 38.1281 83.8296 38.5359 84.5038 38.808C85.193 39.0828 85.9286 39.2221 86.6704 39.2183C88.5897 39.2123 90.069 38.6662 91.1085 37.5799Z" fill="#6F2595"/>
<path d="M94.8074 33.2307C94.797 31.6812 95.0972 30.1453 95.6902 28.7139C96.2639 27.3272 97.1119 26.071 98.183 25.0208C99.2874 23.9456 100.592 23.0979 102.023 22.5257C103.581 21.9013 105.246 21.5898 106.924 21.6092C108.619 21.5879 110.302 21.8993 111.877 22.5257C113.312 23.0963 114.621 23.9441 115.729 25.0208C116.801 26.0722 117.651 27.328 118.23 28.7139C119.423 31.6067 119.423 34.8547 118.23 37.7475C117.651 39.1334 116.801 40.3892 115.729 41.4407C114.619 42.517 113.307 43.362 111.868 43.9267C110.286 44.5419 108.601 44.847 106.903 44.8253C105.229 44.8455 103.567 44.5341 102.014 43.9087C100.592 43.3368 99.2949 42.4934 98.195 41.4257C97.1266 40.3766 96.279 39.1239 95.7022 37.7415C95.1018 36.3141 94.7974 34.7794 94.8074 33.2307V33.2307ZM101.307 33.2097C101.296 34.0512 101.447 34.887 101.75 35.6718C102.024 36.3859 102.438 37.0377 102.968 37.5888C103.482 38.1179 104.098 38.5368 104.779 38.8198C105.479 39.1103 106.23 39.2569 106.987 39.2511C107.752 39.2578 108.51 39.1112 109.217 38.8198C109.893 38.5419 110.504 38.1268 111.012 37.6008C111.532 37.049 111.938 36.4009 112.209 35.6928C112.514 34.901 112.664 34.0581 112.652 33.2097C112.664 32.3711 112.513 31.5382 112.209 30.7566C111.939 30.0519 111.532 29.4076 111.012 28.8607C110.503 28.3366 109.892 27.9218 109.217 27.6416C108.512 27.3525 107.758 27.2059 106.996 27.2103C106.239 27.2045 105.488 27.3511 104.788 27.6416C104.113 27.9218 103.502 28.3366 102.992 28.8607C102.472 29.4076 102.065 30.0519 101.795 30.7566C101.476 31.5351 101.31 32.3682 101.307 33.2097V33.2097Z" fill="#6F2595"/>
<path d="M144.254 32.4311V44.1365H137.712V32.5778C137.732 31.7182 137.625 30.8602 137.395 30.0319C137.228 29.4213 136.927 28.8562 136.512 28.3785C136.143 27.9689 135.677 27.6598 135.156 27.4799C134.597 27.2924 134.01 27.2003 133.421 27.2074C132.674 27.1956 131.934 27.35 131.254 27.6596C130.622 27.9496 130.059 28.3702 129.602 28.8937C129.133 29.4469 128.779 30.0885 128.561 30.7807C128.316 31.5494 128.196 32.3522 128.204 33.1589V44.1275H121.705V22.3041H126.942L127.34 23.9665C128.329 23.2632 129.413 22.7035 130.56 22.3041C131.17 22.0913 131.795 21.9221 132.43 21.798C133.068 21.673 133.716 21.6098 134.366 21.6092C135.896 21.5716 137.419 21.8247 138.855 22.3551C140.039 22.8096 141.094 23.5468 141.928 24.5027C142.758 25.4941 143.361 26.6556 143.694 27.9052C144.089 29.3807 144.277 30.9038 144.254 32.4311V32.4311Z" fill="#6F2595"/>
<path d="M161.24 22.3041H168.221L159.073 44.1364H153.246L144.116 22.3041H151.08L156.128 35.4202H156.17L161.24 22.3041Z" fill="#6F2595"/>
<path d="M167.452 33.2307C167.443 31.6869 167.722 30.1549 168.275 28.7139C168.801 27.3339 169.594 26.0716 170.61 24.9998C171.648 23.9104 172.901 23.0495 174.29 22.4718C175.831 21.8362 177.484 21.5213 179.15 21.5463C179.838 21.5438 180.525 21.607 181.2 21.735C181.828 21.8544 182.445 22.0308 183.041 22.2622C183.593 22.4754 184.127 22.7318 184.639 23.0289C185.104 23.2987 185.548 23.6052 185.964 23.9455L186.252 22.3041H191.782V44.1364H186.252L185.952 42.495C185.061 43.1995 184.072 43.7705 183.017 44.1903C181.79 44.6759 180.479 44.9151 179.159 44.8942C177.5 44.9181 175.854 44.6031 174.32 43.9687C172.931 43.3955 171.672 42.5467 170.618 41.4736C169.594 40.4111 168.796 39.1503 168.275 37.7685C167.721 36.3205 167.442 34.7815 167.452 33.2307V33.2307ZM173.952 33.2098C173.942 34.0639 174.099 34.9117 174.416 35.7048C174.703 36.4224 175.128 37.0767 175.667 37.6307C176.195 38.1648 176.825 38.5874 177.519 38.8738C178.97 39.4608 180.591 39.4608 182.041 38.8738C182.735 38.5874 183.365 38.1648 183.894 37.6307C184.431 37.0785 184.853 36.4235 185.133 35.7048C185.443 34.9102 185.598 34.063 185.587 33.2098C185.597 32.3664 185.44 31.5295 185.124 30.7477C184.835 30.0335 184.41 29.3825 183.873 28.8307C183.344 28.2967 182.714 27.874 182.02 27.5877C180.563 27.0006 178.935 27.0006 177.477 27.5877C176.786 27.8719 176.159 28.295 175.637 28.8307C175.104 29.3819 174.686 30.0335 174.407 30.7477C174.097 31.5309 173.942 32.3672 173.952 33.2098V33.2098Z" fill="#6F2595"/>
<path d="M198.602 18.3294L199.356 16.2807L204.028 16.2388V22.3041H210.36V27.8843H204.028V35.5461C204.012 36.114 204.094 36.6804 204.27 37.2204C204.402 37.6175 204.625 37.9777 204.923 38.2718C205.197 38.5333 205.534 38.7191 205.901 38.8109C206.299 38.9119 206.708 38.9612 207.119 38.9577H210.758L210.716 44.2832H206.488C205.327 44.2892 204.168 44.1799 203.028 43.9567C201.994 43.7635 201.018 43.3317 200.179 42.6957C199.316 42.0038 198.651 41.0954 198.252 40.0629C197.781 38.9327 197.547 37.4481 197.549 35.609V27.8843H194.077V22.9032C195.114 22.5076 196.054 21.8949 196.834 21.1061C197.614 20.3173 198.217 19.3706 198.602 18.3294V18.3294Z" fill="#6F2595"/>
<path d="M226.212 35.9474H218.682C219.133 36.9713 219.881 37.8362 220.828 38.4305C221.77 39.0292 222.866 39.3414 223.982 39.3291C224.566 39.3357 225.15 39.2937 225.727 39.2033C226.173 39.1328 226.61 39.0164 227.032 38.8558C227.39 38.72 227.733 38.5442 228.052 38.3317C228.355 38.132 228.661 37.9103 228.968 37.6667L232.502 41.5426C232.058 41.9553 231.583 42.3329 231.081 42.6718C230.471 43.0889 229.823 43.4488 229.147 43.7471C228.37 44.0855 227.564 44.3531 226.738 44.5468C225.807 44.7618 224.854 44.8673 223.898 44.8613C222.233 44.881 220.58 44.5663 219.038 43.9358C217.62 43.3548 216.329 42.4999 215.241 41.4198C213.626 39.782 212.528 37.7047 212.085 35.4469C211.642 33.189 211.872 30.8505 212.748 28.7229C213.323 27.3355 214.167 26.0761 215.232 25.0178C216.325 23.9391 217.618 23.0844 219.038 22.5018C220.587 21.8701 222.247 21.5554 223.919 21.5763C225.349 21.5612 226.773 21.7529 228.148 22.1454C229.304 22.4678 230.391 22.9998 231.356 23.7149C232.213 24.3573 232.915 25.1844 233.409 26.135C233.897 27.1001 234.145 28.1686 234.133 29.2501C234.137 30.1208 234.01 30.9872 233.756 31.82C233.506 32.6285 233.061 33.3629 232.46 33.9586C231.766 34.6188 230.932 35.1151 230.021 35.4113C228.79 35.8008 227.502 35.982 226.212 35.9474V35.9474ZM224.087 26.9617C222.911 26.9549 221.761 27.3116 220.795 27.9831C220.315 28.3151 219.883 28.7123 219.511 29.1632C219.129 29.6226 218.817 30.1364 218.587 30.6878H225.17C225.867 30.7214 226.56 30.5695 227.178 30.2475C227.349 30.1657 227.5 30.0479 227.621 29.9021C227.742 29.7564 227.83 29.5862 227.879 29.4031C227.928 29.2201 227.936 29.0287 227.904 28.842C227.872 28.6553 227.8 28.4777 227.693 28.3216C227.508 28.0458 227.264 27.8154 226.978 27.6476C226.606 27.4232 226.202 27.2565 225.781 27.1534C225.227 27.0143 224.658 26.9479 224.087 26.9557V26.9617Z" fill="#6F2595"/>
<path d="M252.089 37.5798L256 41.7072C254.908 42.7362 253.621 43.5347 252.214 44.0555C250.737 44.5949 249.172 44.8579 247.6 44.8312C245.921 44.8364 244.257 44.5181 242.698 43.8937C241.268 43.3204 239.964 42.4728 238.858 41.3987C237.789 40.3506 236.941 39.0977 236.366 37.7146C235.187 34.8355 235.187 31.6079 236.366 28.7288C236.939 27.3408 237.784 26.0812 238.849 25.0237C239.948 23.9414 241.248 23.0864 242.677 22.5077C244.241 21.8781 245.914 21.5655 247.6 21.5882C249.152 21.576 250.694 21.8396 252.154 22.3669C252.337 22.4358 252.52 22.5077 252.699 22.5826C253.116 22.7624 253.483 23.0405 253.768 23.3931C254.054 23.7457 254.25 24.1623 254.34 24.6073C254.43 25.0523 254.411 25.5125 254.285 25.9486C254.159 26.3847 253.929 26.7836 253.615 27.1114V27.1114C253.21 27.5281 252.688 27.8112 252.119 27.9225C251.549 28.0339 250.959 27.9683 250.428 27.7344L250.129 27.6206C249.328 27.3378 248.484 27.1989 247.636 27.2103C246.894 27.2062 246.158 27.3455 245.469 27.6206C244.798 27.8884 244.187 28.2888 243.673 28.7977C243.139 29.3352 242.721 29.9764 242.444 30.6817C242.131 31.4871 241.977 32.3457 241.992 33.2097C241.977 34.0699 242.13 34.9246 242.444 35.7257C242.724 36.4294 243.142 37.0699 243.673 37.6097C244.184 38.1277 244.795 38.5355 245.469 38.8078C246.158 39.0829 246.894 39.2222 247.636 39.2182C249.567 39.2122 251.051 38.666 252.089 37.5798Z" fill="#6F2595"/>
<path d="M53.0433 18.8519L52.9076 18.5552C50.9128 13.9557 48.0592 11.285 45.1938 11.285C40.7674 11.285 38.4716 13.2406 38.4716 21.846C38.4716 26.7689 40.6523 32.2764 42.7239 37.2498C44.5977 41.7483 46.3831 45.8107 46.3831 48.606C46.3831 51.5971 45.8312 52.6298 44.6125 53.9265C45.8772 52.9029 47.0467 51.7657 48.1064 50.5289C51.7381 46.3984 54.1233 41.3123 54.9821 35.867C55.9854 30.1547 55.1385 23.5315 53.0433 18.8519Z" fill="white"/>
<path d="M30.0938 35.0242C37.4033 35.0242 43.3288 29.0656 43.3288 21.7154C43.3288 14.3652 37.4033 8.40662 30.0938 8.40662C22.7843 8.40662 16.8588 14.3652 16.8588 21.7154C16.8588 29.0656 22.7843 35.0242 30.0938 35.0242Z" fill="white"/>
<path d="M25.5847 0H25.4962C25.3162 0 25.0595 0 24.7437 0C21.4704 0.0364286 18.2334 0.694886 15.2033 1.94068L14.982 2.03267H14.9584C8.66694 4.74487 5.22024 9.69746 3.37 14.0536C2.51547 15.9739 1.90092 17.9932 1.54041 20.0655C2.49946 15.6144 8.17709 14.1693 14.3947 13.1604C22.8344 11.7924 32.2745 11.2494 32.2745 5.17811C32.2745 3.72112 31.764 0 25.5847 0Z" fill="white"/>
<path d="M14.3947 13.1752C14.0469 12.1871 13.8702 11.1462 13.8724 10.098C13.8724 1.91097 20.7097 0.36792 24.0236 0.0889845C24.5666 0.0415061 25.1037 0.00886448 25.4165 0.00292969H25.4991C25.3191 0.00292969 25.0624 0.00292969 24.7466 0.00292969C21.4733 0.0393583 18.2363 0.697816 15.2062 1.94361L14.9849 2.0356H14.9613C8.66985 4.7478 5.22314 9.70038 3.3729 14.0565C2.51837 15.9768 1.90382 17.9962 1.54331 20.0685V20.0685C1.38134 20.8652 1.27485 21.6723 1.22461 22.4839C1.22461 36.2438 10.3017 45.5465 18.3047 45.5465C27.3051 45.5465 31.0793 37.3001 31.0793 33.9885C31.0764 23.935 17.2748 21.3445 14.3947 13.1752Z" fill="white"/>
<path d="M53.0433 18.8519C53.2758 20.1558 53.3747 21.4803 53.3384 22.8045C53.3384 25.1636 50.7917 33.0242 42.8655 37.1756L42.6796 37.2735C39.6991 38.7958 35.9721 39.7958 31.3479 39.7958C20.5032 39.7958 16.366 34.8759 10.1011 34.8759C5.33827 34.8759 0 37.9798 0 43.1045C0 51.7396 9.38106 61.1403 25.9979 61.1344C31.6342 61.1344 38.7696 58.7605 44.5888 53.9236C45.8536 52.9 47.0231 51.7628 48.0827 50.5259C51.7144 46.3955 54.0996 41.3093 54.9585 35.864C55.9854 30.1547 55.1385 23.5315 53.0433 18.8519Z" fill="white"/>
<path d="M30.0938 35.0242C37.4033 35.0242 43.3288 29.0656 43.3288 21.7154C43.3288 14.3652 37.4033 8.40662 30.0938 8.40662C22.7843 8.40662 16.8588 14.3652 16.8588 21.7154C16.8588 29.0656 22.7843 35.0242 30.0938 35.0242Z" fill="url(#paint0_radial_2042_35486)"/>
<path opacity="0.91" d="M25.5847 0H25.4962C25.3162 0 25.0595 0 24.7437 0C21.4704 0.0364286 18.2334 0.694886 15.2033 1.94068L14.982 2.03267H14.9584C8.66694 4.74487 5.22024 9.69746 3.37 14.0536C2.51547 15.9739 1.90092 17.9932 1.54041 20.0655C2.49946 15.6144 8.17709 14.1693 14.3947 13.1604C22.8344 11.7924 32.2745 11.2494 32.2745 5.17811C32.2745 3.72112 31.764 0 25.5847 0Z" fill="url(#paint1_linear_2042_35486)"/>
<path opacity="0.98" d="M14.3947 13.1752C14.0469 12.1871 13.8702 11.1462 13.8724 10.098C13.8724 1.91097 20.7097 0.36792 24.0236 0.0889845C24.5666 0.0415061 25.1037 0.00886448 25.4165 0.00292969H25.4991C25.3191 0.00292969 25.0624 0.00292969 24.7466 0.00292969C21.4733 0.0393583 18.2363 0.697816 15.2062 1.94361L14.9849 2.0356H14.9613C8.66985 4.7478 5.22314 9.70038 3.3729 14.0565C2.51837 15.9768 1.90382 17.9962 1.54331 20.0685V20.0685C1.38134 20.8652 1.27485 21.6723 1.22461 22.4839C1.22461 36.2438 10.3017 45.5465 18.3047 45.5465C27.3051 45.5465 31.0793 37.3001 31.0793 33.9885C31.0764 23.935 17.2748 21.3445 14.3947 13.1752Z" fill="url(#paint2_linear_2042_35486)"/>
<path opacity="0.9" d="M53.0433 18.8519L52.9076 18.5552C50.9128 13.9557 48.0592 11.285 45.1938 11.285C40.7674 11.285 38.4716 13.2406 38.4716 21.846C38.4716 26.7689 40.6523 32.2764 42.7239 37.2498C44.5977 41.7483 46.3831 45.8107 46.3831 48.606C46.3831 51.5971 45.8312 52.6298 44.6125 53.9265C45.8772 52.9029 47.0467 51.7657 48.1064 50.5289C51.7381 46.3984 54.1233 41.3123 54.9821 35.867C55.9854 30.1547 55.1385 23.5315 53.0433 18.8519Z" fill="url(#paint3_linear_2042_35486)"/>
<path opacity="0.97" d="M53.0433 18.8519C53.2758 20.1558 53.3747 21.4803 53.3384 22.8045C53.3384 25.1636 50.7917 33.0242 42.8655 37.1756L42.6796 37.2735C39.6991 38.7958 35.9721 39.7958 31.3479 39.7958C20.5032 39.7958 16.366 34.8759 10.1011 34.8759C5.33827 34.8759 0 37.9798 0 43.1045C0 51.7396 9.38106 61.1403 25.9979 61.1344C31.6342 61.1344 38.7696 58.7605 44.5888 53.9236C45.8536 52.9 47.0231 51.7628 48.0827 50.5259C51.7144 46.3955 54.0996 41.3093 54.9585 35.864C55.9854 30.1547 55.1385 23.5315 53.0433 18.8519Z" fill="url(#paint4_linear_2042_35486)"/>
<path d="M120.286 61.0735V55.9387H119.052V55.0472H120.286V54.7446C120.286 54.4743 120.317 54.2049 120.377 53.9415C120.435 53.6865 120.542 53.4454 120.693 53.232C120.852 53.0181 121.061 52.8462 121.301 52.7314C121.601 52.5932 121.929 52.5272 122.26 52.5386H123.135V53.3953H122.479C122.29 53.3892 122.102 53.4249 121.928 53.4997C121.785 53.5659 121.661 53.6672 121.569 53.7942C121.475 53.9259 121.408 54.0752 121.373 54.2333C121.334 54.4135 121.314 54.5976 121.314 54.7821V55.0498H123.106V55.9413H121.314V61.0762L120.286 61.0735Z" fill="#AA0061"/>
<path d="M124.693 58.0564C124.69 57.6288 124.775 57.2051 124.942 56.8115C125.102 56.4316 125.335 56.0875 125.63 55.7995C125.93 55.5058 126.284 55.2746 126.674 55.1195C127.513 54.7875 128.446 54.7875 129.284 55.1195C129.671 55.2731 130.023 55.5017 130.321 55.7921C130.619 56.0825 130.856 56.4289 131.019 56.8115C131.269 57.3989 131.335 58.0481 131.21 58.674C131.084 59.2998 130.772 59.8731 130.315 60.3186C130.012 60.6095 129.657 60.8402 129.268 60.9986C128.851 61.1654 128.406 61.2491 127.957 61.2449C127.512 61.2483 127.071 61.1647 126.658 60.9986C126.27 60.842 125.916 60.611 125.617 60.3186C125.323 60.0284 125.09 59.6838 124.929 59.304C124.764 58.909 124.684 58.4841 124.693 58.0564V58.0564ZM125.721 58.0564C125.716 58.3594 125.773 58.6603 125.886 58.9412C126 59.2222 126.168 59.4775 126.382 59.6922C126.589 59.898 126.835 60.0608 127.105 60.1714C127.384 60.2869 127.684 60.3451 127.986 60.3427C128.29 60.3451 128.591 60.2869 128.872 60.1714C129.142 60.0611 129.388 59.8983 129.595 59.6924C129.802 59.4865 129.965 59.2417 130.077 58.972C130.196 58.6817 130.257 58.3703 130.254 58.0564C130.257 57.7442 130.196 57.4346 130.077 57.1461C129.964 56.8737 129.798 56.6263 129.59 56.4179C129.382 56.2136 129.138 56.051 128.869 55.9387C128.3 55.7136 127.667 55.7136 127.097 55.9387C126.829 56.0497 126.585 56.2125 126.38 56.4179C126.175 56.6275 126.012 56.8736 125.898 57.1435C125.774 57.4318 125.71 57.7425 125.71 58.0564H125.721Z" fill="#AA0061"/>
<path d="M137.257 55.0472V55.9574H136.596C136.31 55.9539 136.025 56.0001 135.755 56.0939C135.51 56.1782 135.288 56.3174 135.105 56.5009C134.92 56.6923 134.776 56.9203 134.684 57.1702C134.58 57.4694 134.529 57.7848 134.534 58.1018V61.0735H133.512V55.0472H134.358L134.462 55.9815C134.69 55.6994 134.977 55.4709 135.303 55.3122C135.692 55.126 136.119 55.0342 136.55 55.0445L137.257 55.0472Z" fill="#AA0061"/>
<path d="M142.646 58.5088H139.733C139.778 58.7723 139.869 59.026 140.001 59.2584C140.132 59.4796 140.3 59.6769 140.496 59.842C140.696 60.0062 140.921 60.1364 141.163 60.2275C141.413 60.3202 141.678 60.3674 141.945 60.3667C142.305 60.3768 142.663 60.3054 142.992 60.1579C143.275 60.025 143.533 59.8439 143.755 59.6225L144.338 60.2329C144.204 60.3766 144.057 60.5075 143.899 60.6237C143.725 60.7533 143.537 60.8637 143.34 60.953C143.127 61.0495 142.906 61.1248 142.678 61.1779C142.432 61.2334 142.181 61.2613 141.929 61.2609C141.489 61.2644 141.053 61.1788 140.646 61.0093C140.264 60.8492 139.915 60.6164 139.621 60.3239C139.329 60.0337 139.097 59.689 138.938 59.3092C138.772 58.9193 138.687 58.4992 138.689 58.0751C138.689 57.6565 138.77 57.2419 138.93 56.855C139.09 56.4682 139.325 56.1167 139.621 55.8209C139.916 55.5272 140.265 55.2944 140.649 55.1355C141.056 54.9651 141.493 54.8795 141.934 54.8838C142.329 54.8773 142.723 54.9314 143.101 55.0445C143.407 55.1345 143.694 55.2797 143.947 55.4728C144.164 55.6385 144.343 55.8495 144.469 56.0913C144.585 56.3194 144.646 56.5716 144.646 56.8275C144.647 57.0508 144.61 57.2727 144.536 57.4834C144.464 57.6876 144.344 57.8713 144.186 58.0188C144.006 58.1827 143.793 58.3068 143.562 58.3829C143.266 58.4746 142.956 58.5171 142.646 58.5088V58.5088ZM139.723 57.6654H142.547C142.853 57.6762 143.154 57.5817 143.399 57.3977C143.486 57.3213 143.555 57.2264 143.602 57.1199C143.648 57.0135 143.67 56.898 143.666 56.782C143.665 56.6512 143.63 56.523 143.565 56.4098C143.486 56.2743 143.378 56.1581 143.249 56.0698C143.085 55.9596 142.904 55.8773 142.713 55.8262C142.469 55.7577 142.217 55.7253 141.964 55.7298C141.689 55.7277 141.417 55.7767 141.16 55.8744C140.913 55.9677 140.684 56.1036 140.483 56.276C140.282 56.4499 140.112 56.6562 139.98 56.8864C139.847 57.1282 139.76 57.3923 139.723 57.6654V57.6654Z" fill="#AA0061"/>
<path d="M151.029 55.0471H152.129L149.535 61.0735H148.59L145.996 55.0471H147.088L149.061 59.7322L151.029 55.0471Z" fill="#AA0061"/>
<path d="M157.149 58.5088H154.236C154.281 58.7723 154.371 59.026 154.504 59.2584C154.634 59.4802 154.801 59.6777 154.999 59.842C155.198 60.0061 155.422 60.1364 155.663 60.2275C155.914 60.3203 156.18 60.3674 156.447 60.3668C156.807 60.3768 157.165 60.3055 157.494 60.1579C157.777 60.0257 158.035 59.8444 158.254 59.6225L158.841 60.2329C158.707 60.3773 158.559 60.5082 158.399 60.6238C158.226 60.7533 158.039 60.8637 157.842 60.9531C157.629 61.0491 157.408 61.1244 157.181 61.1779C156.934 61.2335 156.682 61.2613 156.429 61.2609C155.989 61.2641 155.552 61.1786 155.146 61.0093C154.376 60.6891 153.762 60.0784 153.438 59.3093C153.273 58.9187 153.19 58.4989 153.192 58.0751C153.19 57.6496 153.274 57.228 153.438 56.8355C153.599 56.4567 153.83 56.1123 154.121 55.8209C154.415 55.5273 154.765 55.2944 155.149 55.1355C155.556 54.9652 155.993 54.8795 156.434 54.8839C156.829 54.8771 157.223 54.9313 157.601 55.0445C157.908 55.134 158.196 55.2792 158.45 55.4728C158.666 55.6384 158.844 55.8495 158.969 56.0913C159.086 56.3192 159.147 56.5714 159.149 56.8275C159.15 57.0508 159.113 57.2727 159.039 57.4834C158.965 57.6876 158.844 57.8712 158.685 58.0189C158.506 58.1827 158.295 58.3068 158.064 58.383C157.768 58.4744 157.459 58.5169 157.149 58.5088V58.5088ZM154.223 57.6655H157.05C157.355 57.6756 157.654 57.5812 157.898 57.3977C157.986 57.3217 158.056 57.2269 158.102 57.1203C158.149 57.0137 158.17 56.8981 158.166 56.782C158.164 56.6514 158.129 56.5235 158.064 56.4099C157.985 56.2742 157.876 56.158 157.746 56.0699C157.582 55.9599 157.401 55.8776 157.21 55.8262C156.966 55.7578 156.712 55.7253 156.458 55.7299C156.184 55.7276 155.911 55.7766 155.655 55.8744C155.407 55.9672 155.178 56.1031 154.977 56.276C154.776 56.4492 154.606 56.6557 154.474 56.8864C154.344 57.1287 154.258 57.3927 154.223 57.6655V57.6655Z" fill="#AA0061"/>
<path d="M165.119 55.0471V55.9573H164.457C164.171 55.9536 163.887 55.9999 163.617 56.0939C163.372 56.1782 163.149 56.3174 162.966 56.5008C162.781 56.6923 162.638 56.9202 162.546 57.1701C162.44 57.469 162.389 57.7847 162.396 58.1018V61.0735H161.371V55.0471H162.214L162.321 55.9814C162.549 55.6993 162.836 55.4708 163.162 55.3121C163.55 55.1262 163.976 55.0345 164.407 55.0444L165.119 55.0471Z" fill="#AA0061"/>
<path d="M175.645 59.7456L176.285 60.4068C175.978 60.6848 175.62 60.9003 175.231 61.0413C174.86 61.1758 174.468 61.2446 174.074 61.2448C173.635 61.2476 173.199 61.1677 172.789 61.0092C172.394 60.8592 172.03 60.6357 171.718 60.3506C171.411 60.0667 171.163 59.7245 170.99 59.344C170.808 58.9411 170.717 58.5034 170.722 58.0616C170.719 57.634 170.804 57.2103 170.971 56.8167C171.13 56.4363 171.364 56.092 171.659 55.8047C171.958 55.5111 172.312 55.2799 172.701 55.1247C173.115 54.9563 173.559 54.8716 174.007 54.8758C174.408 54.877 174.806 54.9448 175.185 55.0765C175.58 55.2174 175.944 55.4338 176.256 55.7137L175.624 56.3777C175.418 56.181 175.174 56.0288 174.907 55.9306C174.618 55.8247 174.312 55.7721 174.004 55.7753C173.712 55.7741 173.423 55.8276 173.15 55.9332C172.878 56.0376 172.63 56.1957 172.42 56.3981C172.21 56.6004 172.044 56.843 171.93 57.1112C171.68 57.7193 171.68 58.4013 171.93 59.0093C172.045 59.2807 172.215 59.525 172.43 59.7268C172.641 59.9237 172.887 60.0782 173.156 60.1819C173.426 60.2889 173.714 60.3434 174.004 60.3426C174.304 60.3581 174.604 60.3133 174.886 60.2107C175.167 60.1082 175.426 59.95 175.645 59.7456V59.7456Z" fill="#AA0061"/>
<path d="M183.827 61.0734H182.976L182.879 60.2248C182.718 60.3838 182.538 60.5231 182.344 60.6397C182.141 60.7648 181.927 60.8698 181.704 60.953C181.479 61.0394 181.245 61.1039 181.008 61.1457C180.772 61.1881 180.533 61.2096 180.293 61.21C180.017 61.2123 179.742 61.1754 179.476 61.1002C179.232 61.034 179.005 60.9183 178.807 60.7602C178.61 60.6007 178.454 60.3959 178.352 60.1632C178.232 59.8835 178.175 59.5811 178.183 59.277C178.174 58.9894 178.261 58.7069 178.43 58.4739C178.602 58.2522 178.828 58.0773 179.086 57.9652C179.385 57.8296 179.702 57.7393 180.028 57.6975C180.392 57.6464 180.758 57.6213 181.126 57.6225H181.503L181.945 57.6359L182.392 57.6493C182.536 57.6493 182.66 57.6493 182.793 57.6493V56.897C182.788 56.7421 182.746 56.5907 182.67 56.4553C182.589 56.3063 182.475 56.1781 182.336 56.0805C182.168 55.9602 181.98 55.8696 181.782 55.8127C181.529 55.7444 181.269 55.7119 181.008 55.7164C180.792 55.7156 180.576 55.7444 180.368 55.802C180.18 55.8524 179.999 55.929 179.833 56.0296C179.689 56.1133 179.564 56.2254 179.466 56.3589C179.379 56.4707 179.331 56.608 179.329 56.7498H178.29C178.294 56.4721 178.373 56.2007 178.521 55.9653C178.67 55.7276 178.869 55.5249 179.104 55.371C179.366 55.1998 179.653 55.0722 179.956 54.9935C180.293 54.9031 180.64 54.8581 180.989 54.8597C181.409 54.8524 181.827 54.9065 182.231 55.0203C182.551 55.1079 182.851 55.254 183.117 55.4513C183.343 55.6163 183.526 55.8318 183.653 56.0805C183.768 56.3164 183.828 56.5756 183.827 56.8381V61.0734ZM180.646 60.3881C180.877 60.3881 181.108 60.3593 181.332 60.3024C181.555 60.2494 181.771 60.1694 181.974 60.0641C182.17 59.9684 182.35 59.8448 182.51 59.6973C182.649 59.5689 182.757 59.4093 182.823 59.2315V58.3962C182.711 58.3962 182.59 58.3962 182.459 58.3962H182.052H181.642H181.281C181.043 58.3963 180.805 58.4097 180.569 58.4364C180.348 58.4567 180.13 58.5043 179.921 58.5783C179.742 58.6364 179.58 58.7354 179.447 58.8674C179.386 58.9315 179.338 59.0071 179.307 59.0899C179.276 59.1727 179.261 59.2609 179.265 59.3493C179.258 59.5237 179.296 59.697 179.375 59.8526C179.445 59.9862 179.546 60.101 179.669 60.1873C179.804 60.2774 179.955 60.3402 180.114 60.372C180.29 60.3946 180.469 60.4 180.646 60.3881Z" fill="#AA0061"/>
<path d="M190.118 55.0472V55.9574H189.454C189.168 55.9541 188.884 56.0003 188.614 56.0939C188.369 56.1782 188.146 56.3174 187.963 56.5009C187.778 56.6923 187.635 56.9203 187.543 57.1702C187.438 57.4694 187.387 57.7848 187.393 58.1018V61.0735H186.37V55.0472H187.216L187.323 55.9815C187.55 55.6994 187.836 55.4709 188.161 55.3122C188.55 55.126 188.978 55.0342 189.409 55.0445L190.118 55.0472Z" fill="#AA0061"/>
<path d="M192.11 53.2507C192.109 53.1674 192.125 53.0847 192.157 53.0081C192.19 52.9315 192.239 52.8627 192.3 52.8063C192.367 52.7445 192.446 52.6965 192.532 52.6653C192.618 52.634 192.709 52.6201 192.801 52.6243C192.987 52.6162 193.169 52.6816 193.307 52.8063C193.368 52.8626 193.418 52.9313 193.451 53.0079C193.484 53.0845 193.501 53.1672 193.5 53.2507C193.501 53.335 193.484 53.4187 193.451 53.4962C193.418 53.5736 193.369 53.6433 193.307 53.7005C193.167 53.826 192.983 53.8914 192.795 53.8825C192.705 53.8861 192.616 53.8718 192.531 53.8406C192.446 53.8093 192.369 53.7617 192.303 53.7005C192.241 53.6433 192.192 53.5736 192.159 53.4962C192.125 53.4187 192.109 53.335 192.11 53.2507V53.2507ZM192.281 61.0735V55.0471H193.309V61.0735H192.281Z" fill="#AA0061"/>
<path d="M201.74 57.8074V61.0736H200.725V57.8234C200.732 57.5091 200.689 57.1958 200.6 56.8945C200.531 56.6576 200.41 56.4395 200.244 56.2573C200.084 56.0908 199.887 55.9658 199.668 55.8932C199.416 55.8103 199.152 55.7705 198.886 55.7754C198.618 55.7732 198.352 55.8251 198.104 55.928C197.866 56.0269 197.65 56.1735 197.47 56.359C197.285 56.5493 197.14 56.7752 197.044 57.023C196.938 57.2968 196.885 57.5886 196.889 57.8823V61.0736H195.853V55.0472H196.71L196.798 55.8691C196.927 55.7254 197.069 55.5945 197.224 55.4782C197.39 55.354 197.57 55.2481 197.759 55.1623C197.954 55.0724 198.158 55.0025 198.367 54.9535C198.583 54.902 198.804 54.8759 199.025 54.8759C199.946 54.8759 200.632 55.1231 201.081 55.6174C201.529 56.1127 201.74 56.8409 201.74 57.8074Z" fill="#AA0061"/>
<path d="M209.707 54.7688H210.382V55.5077H209.908C209.763 55.5082 209.619 55.5373 209.485 55.5933C209.359 55.6461 209.238 55.7106 209.124 55.7861C209.266 55.9723 209.38 56.179 209.461 56.3992C209.539 56.622 209.579 56.8564 209.579 57.0926C209.579 57.4081 209.51 57.7199 209.375 58.0055C209.238 58.2906 209.042 58.5433 208.8 58.7471C208.538 58.9655 208.237 59.1335 207.914 59.2423C207.546 59.3695 207.159 59.432 206.77 59.4271C206.472 59.4286 206.174 59.3926 205.884 59.32C205.624 59.2534 205.374 59.1535 205.14 59.0228C205.054 59.1272 204.987 59.2459 204.942 59.3735C204.903 59.4837 204.882 59.5994 204.88 59.7162C204.873 59.8318 204.908 59.946 204.979 60.0375C205.048 60.1148 205.134 60.1738 205.231 60.2088C205.335 60.2478 205.444 60.2703 205.555 60.2757C205.667 60.2757 205.769 60.2757 205.86 60.2757H207.466C208.093 60.2384 208.716 60.3825 209.263 60.6907C209.463 60.8163 209.627 60.9927 209.737 61.2019C209.847 61.4112 209.899 61.6458 209.889 61.8821C209.892 62.1826 209.814 62.4783 209.664 62.7388C209.506 63.009 209.287 63.2389 209.025 63.4107C208.721 63.6083 208.388 63.7548 208.037 63.8444C207.619 63.9526 207.189 64.0049 206.757 63.9997C206.344 64.0017 205.932 63.9668 205.526 63.8953C205.175 63.8342 204.836 63.7205 204.519 63.558C204.247 63.419 204.014 63.2159 203.839 62.9663C203.668 62.7098 203.581 62.4068 203.59 62.0989C203.59 61.9721 203.612 61.8462 203.654 61.7268C203.7 61.6029 203.757 61.4837 203.826 61.3707C203.897 61.2557 203.979 61.1481 204.072 61.0494C204.161 60.9542 204.257 60.8648 204.358 60.7817C204.207 60.6855 204.083 60.5515 203.999 60.3928C203.915 60.2341 203.873 60.0563 203.879 59.8768C203.881 59.6235 203.944 59.3745 204.064 59.1513C204.179 58.9222 204.33 58.7126 204.511 58.5302C204.337 58.334 204.199 58.1094 204.101 57.8663C203.997 57.5962 203.948 57.3077 203.958 57.0183C203.968 56.7288 204.037 56.4444 204.16 56.1823C204.296 55.8964 204.49 55.642 204.73 55.4354C204.99 55.2118 205.29 55.04 205.614 54.9294C205.981 54.8016 206.368 54.7382 206.757 54.742C207.083 54.7398 207.407 54.784 207.721 54.8732C208.005 54.9527 208.276 55.0745 208.524 55.2346C208.59 55.1767 208.66 55.1231 208.733 55.074C208.818 55.0167 208.907 54.9666 209.001 54.924C209.105 54.8766 209.213 54.8389 209.324 54.8116C209.45 54.7815 209.578 54.7671 209.707 54.7688V54.7688ZM207.322 61.0575H205.448C205.298 61.0575 205.149 61.0459 205.001 61.0227C204.862 61.1437 204.742 61.2844 204.645 61.4403C204.542 61.6076 204.489 61.8008 204.492 61.9972C204.484 62.2048 204.547 62.409 204.672 62.5754C204.802 62.7362 204.97 62.8621 205.161 62.9422C205.391 63.0393 205.632 63.1041 205.879 63.135C206.167 63.1735 206.458 63.1923 206.749 63.1912C207.041 63.1934 207.332 63.1601 207.616 63.0921C207.852 63.0372 208.077 62.9469 208.286 62.8244C208.456 62.7247 208.602 62.5885 208.714 62.4255C208.81 62.2802 208.863 62.11 208.864 61.9356C208.875 61.7599 208.821 61.5863 208.711 61.4484C208.606 61.3284 208.473 61.2365 208.323 61.1806C208.16 61.121 207.99 61.084 207.817 61.0709C207.643 61.0628 207.475 61.0575 207.322 61.0575V61.0575ZM204.963 57.0845C204.961 57.3013 205.009 57.5156 205.103 57.711C205.194 57.9028 205.323 58.0741 205.483 58.2143C205.651 58.3601 205.846 58.4735 206.056 58.549C206.52 58.7095 207.024 58.7095 207.488 58.549C207.698 58.4735 207.892 58.3601 208.061 58.2143C208.22 58.0741 208.35 57.9028 208.441 57.711C208.535 57.5156 208.582 57.3013 208.58 57.0845C208.582 56.8713 208.534 56.6605 208.441 56.4688C208.349 56.2782 208.22 56.1079 208.061 55.9681C207.892 55.8232 207.698 55.7106 207.488 55.6362C207.025 55.4718 206.519 55.4718 206.056 55.6362C205.846 55.7106 205.652 55.8232 205.483 55.9681C205.324 56.1079 205.194 56.2782 205.103 56.4688C205.009 56.6605 204.961 56.8713 204.963 57.0845V57.0845Z" fill="#AA0061"/>
<path d="M113.866 57.6869H105.075V58.4901H113.866V57.6869Z" fill="#AA0061"/>
<path d="M224.726 57.6869H215.935V58.4901H224.726V57.6869Z" fill="#AA0061"/>
<defs>
<radialGradient id="paint0_radial_2042_35486" cx="0" cy="0" r="1" gradientUnits="userSpaceOnUse" gradientTransform="translate(33.7028 14.3533) scale(13.1229 13.196)">
<stop stop-color="#9F1193" stop-opacity="0.3"/>
<stop offset="0.22" stop-color="#A20E88" stop-opacity="0.44"/>
<stop offset="0.67" stop-color="#A8056D" stop-opacity="0.81"/>
<stop offset="0.9" stop-color="#AC005F"/>
</radialGradient>
<linearGradient id="paint1_linear_2042_35486" x1="5.76026" y1="0.32048" x2="37.8261" y2="32.3237" gradientUnits="userSpaceOnUse">
<stop stop-color="#9F1193"/>
<stop offset="0.27" stop-color="#9F1193" stop-opacity="0.77"/>
<stop offset="0.76" stop-color="#9F1193" stop-opacity="0.36"/>
<stop offset="1" stop-color="#9F1193" stop-opacity="0.2"/>
</linearGradient>
<linearGradient id="paint2_linear_2042_35486" x1="-3.94545" y1="-0.575713" x2="66.7353" y2="69.964" gradientUnits="userSpaceOnUse">
<stop stop-color="#6F2595"/>
<stop offset="0.37" stop-color="#871680" stop-opacity="0.6"/>
<stop offset="0.8" stop-color="#A20668" stop-opacity="0.17"/>
<stop offset="1" stop-color="#AC005F" stop-opacity="0"/>
</linearGradient>
<linearGradient id="paint3_linear_2042_35486" x1="24.6552" y1="12.5907" x2="89.0757" y2="72.4212" gradientUnits="userSpaceOnUse">
<stop stop-color="#AC005F"/>
<stop offset="0.44" stop-color="#AC005F" stop-opacity="0.53"/>
<stop offset="0.82" stop-color="#AC005F" stop-opacity="0.15"/>
<stop offset="1" stop-color="#AC005F" stop-opacity="0"/>
</linearGradient>
<linearGradient id="paint4_linear_2042_35486" x1="3.82148" y1="12.6738" x2="91.0256" y2="93.666" gradientUnits="userSpaceOnUse">
<stop offset="0.18" stop-color="#AC005F"/>
<stop offset="0.54" stop-color="#D33583" stop-opacity="0.53"/>
<stop offset="0.85" stop-color="#F35FA1" stop-opacity="0.15"/>
<stop offset="1" stop-color="#FF70AC" stop-opacity="0"/>
</linearGradient>
</defs>
</svg>
