<svg width="400" height="400" viewBox="0 0 400 400" fill="none" xmlns="http://www.w3.org/2000/svg">
<path d="M299.246 2C353.757 2.00019 398 46.2435 398 100.754V298.246C398 352.757 353.757 397 299.246 397H101.754C47.2434 397 3.00017 352.757 3 298.246V100.754C3.00017 46.2603 47.2434 2.00016 101.754 2H299.246ZM122.238 159.03L86.4043 322.377H122.238L190.934 147.396L158.072 322.377H193.905L259.629 135.693L229.739 322.377H265.573L331.297 118.232L265.573 77.4336V77.3486H229.739L259.629 129.851L193.905 77.3486H158.072L190.934 141.469L122.238 77.3486H86.4043L122.238 159.03Z" fill="white"/>
</svg>
