<svg width="703" height="258" viewBox="0 0 703 258" fill="none" xmlns="http://www.w3.org/2000/svg">
<g clip-path="url(#clip0_2_12)">
<path d="M532.37 131.55V188.3H555.59V135.04C555.59 111.3 587.87 111.3 587.87 111.3V88.23C587.87 88.23 578.86 88.65 571.73 90.26C551.53 94.79 532.37 104.79 532.37 131.6V131.55Z" fill="white"/>
<path d="M357.16 87.0299C366.22 87.0299 377.52 92.1299 383.66 101.14C390.01 92.9699 400.53 87.3899 413.49 87.1899C429.94 86.9799 450.3 97.2399 450.3 127.96V188.15H427.08V127.96C427.08 117.7 419.69 110.36 408.6 110.36C397.51 110.36 390.11 117.7 390.11 127.96V188.15H366.89V127.96C366.89 117.7 359.5 110.36 348.41 110.36C337.32 110.36 329.72 117.7 329.72 127.96V188.15H305.3V89.9999H329.72V99.8399C336.33 91.8699 345.96 86.9299 357.26 86.9299L357.16 87.0299Z" fill="white"/>
<path d="M503.79 91.2998V188.25H480.15V91.2998H503.79Z" fill="white"/>
<path d="M491.91 75.8899C499.2 75.8899 505.08 70.0099 505.08 62.7699C505.08 55.5299 499.2 49.6499 491.91 49.6499C484.62 49.6499 478.74 55.5299 478.74 62.7699C478.74 70.0099 484.62 75.8899 491.91 75.8899Z" fill="white"/>
<path d="M650.98 86.8298C622.34 86.8298 599.17 109.9 599.17 138.38C599.17 166.86 622.39 189.93 650.98 189.93C679.57 189.93 702.79 166.86 702.79 138.38C702.79 109.9 679.57 86.8298 650.98 86.8298ZM650.98 166.75C634.79 166.75 621.67 153.68 621.67 137.54C621.67 121.4 634.79 108.33 650.98 108.33C667.17 108.33 680.3 121.4 680.3 137.54C680.3 153.68 667.18 166.75 650.98 166.75Z" fill="white"/>
<path d="M192.94 0.699951C228.35 0.700182 257.09 29.4405 257.09 64.8503V193.14C257.09 228.55 228.35 257.29 192.94 257.29H64.6396C29.2399 257.3 0.500107 228.55 0.5 193.15V64.8503C0.5 29.4505 29.2398 0.700141 64.6396 0.699951H192.94ZM77.9795 102.71L54.71 208.82H77.9795L122.6 95.1599L101.25 208.82H124.52L167.22 87.5496L147.8 208.82H171.07L213.77 76.2L171.07 49.7V49.6501H147.8L167.22 83.7498L124.52 49.6501H101.25L122.6 91.2996L77.9795 49.6501H54.71L77.9795 102.71Z" fill="white"/>
</g>
<defs>
<clipPath id="clip0_2_12">
<rect width="703" height="258" fill="white"/>
</clipPath>
</defs>
</svg>
