<svg version="1.1" id="Layer_1" xmlns:x="ns_extend;" xmlns:i="ns_ai;" xmlns:graph="ns_graphs;" xmlns="http://www.w3.org/2000/svg" xmlns:xlink="http://www.w3.org/1999/xlink" x="0px" y="0px" viewBox="0 0 56 112" style="enable-background:new 0 0 56 112;" xml:space="preserve">
 <metadata>
  <sfw xmlns="ns_sfw;">
   <slices>
   </slices>
   <sliceSourceBounds bottomLeftOrigin="true" height="112" width="56" x="-217" y="-218.3">
   </sliceSourceBounds>
  </sfw>
 </metadata>
 <g>
  <path d="M56,8.9c-0.2,0.2-0.3,0.4-0.5,0.6l-7.1,7.3l-0.2,0.2c-0.2,0.2-0.2,0.4,0,0.7c1.8,3.1,2.9,6.5,3.3,10
		c0.8,7.3-1,13.8-5.5,19.5c-3.8,4.9-8.8,8-14.8,9.3c-2.7,0.6-5.5,0.7-8.3,0.4c-4.6-0.5-8.7-2.2-12.4-5c-5.3-4-8.6-9.4-10-16
		c-0.5-2.5-0.6-4.9-0.4-7.4c0.5-5.7,2.7-10.8,6.5-15.2c3.7-4.2,8.1-6.9,13.4-8.1c2.6-0.6,5.3-0.8,7.9-0.6c3.8,0.3,7.5,1.5,10.8,3.5
		c0.4,0.3,0.6,0.1,0.9-0.2l7.1-7.2c0.2-0.2,0.3-0.4,0.6-0.7L56,8.9C56,8.9,56,8.9,56,8.9z M39.9,31.2c0.2-8.4-6.3-14.6-13.7-14.8
		c-8.3-0.2-14.5,6.8-14.5,14.4c0,7.8,6.4,14.5,14.1,14.3C33.4,45.2,39.7,38.8,39.9,31.2L39.9,31.2z M50.8,89.7c0,7.1,0,14.2,0,21.3
		v1H38.3v-0.9c0-7.4,0-14.9,0-22.3c0-3.9-1.3-7.3-4.1-10c-1.8-1.8-4.2-2.9-6.7-3.2c-3.3-0.5-6.4,0.4-9.1,2.4
		c-2.7,2.1-4.3,4.9-4.8,8.3c-0.3,1.6-0.3,3.3-0.3,4.9c0,6.6,0,13.2,0,19.8v0.9H0.9v-0.8c0-8-0.1-16.1,0-24.1c0.1-4.2,1.4-8.3,3.6-12
		C8.2,69,13.4,65,20.3,63.4c2.2-0.5,4.4-0.7,6.6-0.6c6.8,0.3,12.7,3.1,17.3,8.3c3.3,3.8,5.4,8.1,6.1,13.2
		C50.6,86.1,50.8,87.9,50.8,89.7">
  </path>
 </g>
</svg>