<svg version="1.1" id="Layer_1" xmlns="http://www.w3.org/2000/svg" xmlns:xlink="http://www.w3.org/1999/xlink" x="0px" y="0px" viewBox="0 0 24.6 30.6" style="enable-background:new 0 0 24.6 30.6;" xml:space="preserve">
 <style type="text/css">
  .st0{fill:#0E1414;}
 </style>
 <g>
  <g>
   <g>
    <path class="st0" d="M0,11.2v-1.1c1.3,0,2.6-0.5,3.6-1.5C4.5,7.7,5,6.4,5,5.1h1c0,1.3,0.5,2.6,1.5,3.5c0.9,0.9,2.2,1.5,3.6,1.5
				v1.1c-1.3,0-2.6,0.5-3.6,1.5C6.6,13.6,6,14.8,6,16.2H5c0-1.3-0.5-2.6-1.5-3.5C2.6,11.7,1.3,11.2,0,11.2z M5,3.2h8.7
				c4.2,0,7.3,3,7.3,7.4c0,4.4-3,7.4-7.3,7.4H5v12.6h3.6v-9.4h5c6.1,0,10.9-4.8,10.9-10.6C24.6,4.8,19.8,0,13.7,0H5V3.2z">
    </path>
   </g>
  </g>
 </g>
</svg>