<svg version="1.1" id="Layer_1" xmlns="http://www.w3.org/2000/svg" xmlns:xlink="http://www.w3.org/1999/xlink" x="0px" y="0px" viewBox="0 0 130 40" style="enable-background:new 0 0 130 40;" xml:space="preserve">
 <style type="text/css">
  .st0{fill:#FDDD35;}
 </style>
 <g>
  <g>
   <g>
    <path class="st0" d="M0,20.6v-1.1c1.3,0,2.6-0.5,3.6-1.5C4.5,17.1,5,15.8,5,14.5h1c0,1.3,0.5,2.6,1.5,3.5
				c0.9,0.9,2.2,1.5,3.6,1.5v1.1c-1.3,0-2.6,0.5-3.6,1.5C6.6,23,6,24.2,6,25.6H5C5,24.2,4.5,23,3.6,22C2.6,21.1,1.3,20.6,0,20.6z
				 M5,12.6h8.7c4.2,0,7.3,3,7.3,7.4c0,4.4-3,7.4-7.3,7.4H5V40h3.6v-9.4h5c6.1,0,10.9-4.8,10.9-10.6c0-5.8-4.8-10.6-10.9-10.6H5
				V12.6z M37.6,9.4c3.2,0,6,1.6,7.8,4.1V10H49v20h-3.6v-3.5c-1.8,2.5-4.6,4.1-7.8,4.1c-6,0-11-4.7-11-10.6
				C26.6,14,31.6,9.4,37.6,9.4z M37.6,27.4c4.7,0,7.8-3.2,7.8-7.4c0-4.3-3.1-7.4-7.8-7.4c-4.2,0-7.4,3-7.4,7.4
				C30.2,24.4,33.4,27.4,37.6,27.4z M62.4,9.4c3.2,0,6,1.6,7.8,4.1V0h3.6v30h-3.6v-3.5c-1.8,2.5-4.6,4.1-7.8,4.1
				c-6,0-11-4.7-11-10.6C51.4,14,56.4,9.4,62.4,9.4z M62.4,27.4c4.7,0,7.8-3.2,7.8-7.4c0-4.3-3.1-7.4-7.8-7.4c-4.2,0-7.4,3-7.4,7.4
				C55,24.4,58.2,27.4,62.4,27.4z M87.6,9.4c3.2,0,6,1.6,7.8,4.1V0H99v30h-3.6v-3.5c-1.8,2.5-4.6,4.1-7.8,4.1c-6,0-11-4.7-11-10.6
				C76.6,14,81.7,9.4,87.6,9.4z M87.6,27.4c4.7,0,7.8-3.2,7.8-7.4c0-4.3-3.1-7.4-7.8-7.4c-4.2,0-7.4,3-7.4,7.4
				C80.2,24.4,83.4,27.4,87.6,27.4z M102.6,30V0h3.6v30H102.6z M119.7,9.4c7,0,10.3,5.4,10.3,12h-17.4c0.6,3.9,3.5,6.4,7.1,6.4
				c2.5,0,4.4-1.1,5.9-3.3h3.9c-1.4,3.1-5,6.1-9.8,6.1c-6.1,0-10.8-4.8-10.8-10.6C108.9,14.2,113.6,9.4,119.7,9.4L119.7,9.4z
				 M126.4,18.6c0-3.3-2.8-6.4-6.7-6.4c-3.6,0-6.5,2.5-7.1,6.4H126.4z">
    </path>
   </g>
  </g>
 </g>
</svg>